<?xml version="1.0" encoding="utf-8"?>
<svg xmlns="http://www.w3.org/2000/svg" viewBox="0 0 2700 550" xmlns:bx="https://boxy-svg.com">
  <defs>
    <bx:export>
      <bx:file format="png"/>
    </bx:export>
    <linearGradient id="gradient-1" bx:pinned="true">
      <stop offset="0" style="stop-color: color(a98-rgb 1 1 1 / 0.624);"/>
      <stop offset="0.389" style="stop-color: rgba(255, 255, 255, 0.26);"/>
      <stop offset="1" style="stop-color: rgba(255, 255, 255, 0);"/>
    </linearGradient>
    <radialGradient id="gradient-1-0" href="#gradient-1" gradientUnits="userSpaceOnUse" cx="185.34" cy="361.56" r="101.677" gradientTransform="matrix(1, 0, 0, 1, 67.487817, -78.489525)"/>
  </defs>
  <path style="fill: rgb(20, 198, 0);" d="M 94.243 124.804 L 94.243 424.834 L 509.243 424.804 C 509.243 324.804 509.243 124.804 209.243 124.804 L 94.243 124.804 Z"/>
  <path style="fill: rgb(233, 96, 13);" d="M 94.243 124.804 L 94.243 424.834 L 459.243 424.804 C 459.243 324.804 459.243 124.804 159.243 124.804 L 94.243 124.804 Z"/>
  <path style="fill: rgb(5, 0, 119);" d="M 94.243 124.804 L 94.243 424.832 L 409.243 424.804 C 409.243 324.804 409.243 124.804 109.243 124.804 L 94.243 124.804 Z"/>
  <path d="M 252.743 224.804 L 271.039 264.008 L 310.243 282.304 L 271.039 300.6 L 252.743 339.804 L 234.447 300.6 L 195.243 282.304 L 234.447 264.008 Z" bx:shape="star 252.743 282.304 57.5 57.5 0.45 4 1@ea341acb" style="fill: rgb(255, 255, 255); stroke-width: 10px;"/>
  <ellipse style="fill: url(&quot;#gradient-1-0&quot;);" cx="252.827" cy="283.07" rx="101.677" ry="101.677"/>
  <text style="fill: rgb(255, 255, 255); font-family: &quot;Arial Hebrew Scholar&quot;; font-size: 446.4px; letter-spacing: -7px; white-space: pre;" x="598.177" y="424.762">PromptDict</text>
</svg>